<svg width="1073" height="781" viewBox="0 0 1073 781" fill="none" xmlns="http://www.w3.org/2000/svg">
<g clip-path="url(#clip0)">
<path opacity="0.8" d="M1054.17 623.33C1027.61 678.14 973.65 714.79 917.75 738.96C872.994 758.184 825.684 770.809 777.3 776.44C768.033 777.54 758.737 778.393 749.41 779C725.578 780.553 701.669 780.527 677.84 778.92C663.507 777.967 649.223 776.443 634.99 774.35C585.534 767.135 537.318 753.095 491.72 732.63C478.56 726.703 465.667 720.233 453.04 713.22C431.95 701.531 411.743 688.315 392.58 673.68C388.34 670.44 384.153 667.13 380.02 663.75L378.32 662.36C375.07 659.68 371.85 656.94 368.58 654.28C363.145 649.727 357.375 645.589 351.32 641.9C350.91 641.66 350.5 641.42 350.08 641.19C348.96 640.54 347.82 639.93 346.66 639.35C344.27 638.145 341.82 637.064 339.32 636.11C327.77 631.71 315.4 630.11 302.86 630.38C300.78 630.38 298.7 630.52 296.61 630.66C293.69 630.86 290.76 631.16 287.84 631.54L286.76 631.69C277.455 633.007 268.255 634.982 259.23 637.6C245.29 641.6 231.6 646.6 217.82 651.11C211.97 653.04 206.11 654.88 200.2 656.53L198.9 656.89C190.495 659.254 181.938 661.045 173.29 662.25C153.637 664.762 133.677 663.155 114.68 657.53L114.02 657.34L112.8 656.98L111.13 656.46C108.33 655.58 105.553 654.617 102.8 653.57L101.13 652.93C98.4633 651.903 95.8533 650.8 93.3 649.62L91.63 648.86C88.9633 647.62 86.3533 646.31 83.8 644.93C82.88 644.45 81.97 643.93 81.07 643.44C78.35 641.92 75.6833 640.327 73.07 638.66C70.2966 636.893 67.5833 635.05 64.93 633.13C63.7033 632.25 62.49 631.347 61.29 630.42C54.3724 625.129 47.8946 619.287 41.92 612.95C41.59 612.62 41.28 612.28 40.97 611.95C39.38 610.23 37.82 608.48 36.31 606.69C35.75 606.03 35.19 605.37 34.64 604.69C32.8466 602.503 31.1166 600.267 29.45 597.98C29.2 597.65 28.96 597.31 28.72 596.98C21.8874 587.531 16.2229 577.29 11.85 566.48C11.71 566.15 11.58 565.81 11.46 565.48C10.1266 562.047 8.90998 558.557 7.80998 555.01C7.35998 553.53 6.92998 552.01 6.54998 550.53C6.41998 550.09 6.29998 549.64 6.18998 549.2C0.669976 527.47 0.039978 504.88 0.039978 482.42C0.039978 479.8 0.039978 477.183 0.039978 474.57C0.199978 438.24 0.759976 401.29 6.11998 365.46C6.11998 365.21 6.18998 364.96 6.22998 364.72C8.02394 352.658 10.4641 340.701 13.54 328.9C16.7592 316.518 20.8733 304.386 25.85 292.6C38.18 263.6 56.11 237.21 76.02 212.75C100.02 183.32 127.52 156.16 158.15 133.75C162.55 130.53 167.01 127.403 171.53 124.37L173.62 123C174.35 122.51 175.08 122 175.81 121.57C177.31 120.57 178.81 119.63 180.33 118.68L182.03 117.62L185.27 115.62L186.27 115.05L188 114.05L189.71 113.05C191.71 111.87 193.733 110.717 195.78 109.59C204.52 104.717 213.467 100.263 222.62 96.23C225.32 95.0367 228.037 93.8867 230.77 92.78C243.18 87.7259 255.927 83.5457 268.92 80.27C273.72 79.0567 278.55 77.99 283.41 77.07C289.143 75.9633 294.907 75.0467 300.7 74.32C309.919 73.1601 319.191 72.4692 328.48 72.25C393.8 70.66 459.78 91.92 510.97 132.67C531.37 148.91 549.7 168.14 572.61 180.59C592.61 191.43 616.02 195.92 637.44 187.39C655.14 180.34 666.66 176.84 686.54 177.91C727.677 180.227 768.232 188.708 806.85 203.07C808.41 203.64 809.97 204.23 811.52 204.82C912.23 243.37 998.82 319.92 1043.8 418.29C1044.99 420.89 1046.14 423.51 1047.27 426.15C1074.1 488.8 1083.78 562.25 1054.17 623.33Z" fill="white"/>
<path opacity="0.1" d="M503.44 536.38H353.45V555.79H503.44V536.38Z" fill="#435FC4"/>
<path opacity="0.1" d="M503.44 595.33H353.45V614.74H503.44V595.33Z" fill="#435FC4"/>
<path opacity="0.1" d="M173.32 287.01H145.43V314.9H173.32V287.01Z" fill="#435FC4"/>
<path opacity="0.1" d="M173.32 351.81H145.43V379.7H173.32V351.81Z" fill="#435FC4"/>
<path opacity="0.1" d="M173.32 416.6H145.43V444.49H173.32V416.6Z" fill="#435FC4"/>
<path opacity="0.1" d="M173.32 481.4H145.43V509.29H173.32V481.4Z" fill="#435FC4"/>
<path opacity="0.1" d="M173.32 546.2H145.43V574.09H173.32V546.2Z" fill="#435FC4"/>
<path opacity="0.1" d="M173.32 610.99H145.43V638.88H173.32V610.99Z" fill="#435FC4"/>
<path opacity="0.1" d="M6.09998 364.75V380.75H112.77V364.75H6.09998ZM15.6 379.75H7.76997V365.75H15.6V379.75ZM25.1 379.75H17.27V365.75H25.1V379.75ZM34.6 379.75H26.77V365.75H34.6V379.75ZM44.1 379.75H36.27V365.75H44.1V379.75ZM53.6 379.75H45.77V365.75H53.6V379.75ZM63.1 379.75H55.27V365.75H63.1V379.75ZM72.6 379.75H64.77V365.75H72.6V379.75ZM82.1 379.75H74.27V365.75H82.1V379.75ZM91.6 379.75H83.77V365.75H91.6V379.75ZM101.1 379.75H93.27V365.75H101.1V379.75ZM111.1 379.75H102.77V365.75H111.1V379.75Z" fill="#435FC4"/>
<path opacity="0.1" d="M6.09998 411.21V427.16H112.77V411.21H6.09998ZM15.6 426.16H7.76997V412.21H15.6V426.16ZM25.1 426.16H17.27V412.21H25.1V426.16ZM34.6 426.16H26.77V412.21H34.6V426.16ZM44.1 426.16H36.27V412.21H44.1V426.16ZM53.6 426.16H45.77V412.21H53.6V426.16ZM63.1 426.16H55.27V412.21H63.1V426.16ZM72.6 426.16H64.77V412.21H72.6V426.16ZM82.1 426.16H74.27V412.21H82.1V426.16ZM91.6 426.16H83.77V412.21H91.6V426.16ZM101.1 426.16H93.27V412.21H101.1V426.16ZM111.1 426.16H102.77V412.21H111.1V426.16Z" fill="#435FC4"/>
<path opacity="0.1" d="M6.09998 457.66V473.61H112.77V457.66H6.09998ZM15.6 472.61H7.76997V458.66H15.6V472.61ZM25.1 472.61H17.27V458.66H25.1V472.61ZM34.6 472.61H26.77V458.66H34.6V472.61ZM44.1 472.61H36.27V458.66H44.1V472.61ZM53.6 472.61H45.77V458.66H53.6V472.61ZM63.1 472.61H55.27V458.66H63.1V472.61ZM72.6 472.61H64.77V458.66H72.6V472.61ZM82.1 472.61H74.27V458.66H82.1V472.61ZM91.6 472.61H83.77V458.66H91.6V472.61ZM101.1 472.61H93.27V458.66H101.1V472.61ZM111.1 472.61H102.77V458.66H111.1V472.61Z" fill="#435FC4"/>
<path opacity="0.1" d="M6.09998 504.07V520.07H112.77V504.07H6.09998ZM15.6 519.07H7.76997V505.07H15.6V519.07ZM25.1 519.07H17.27V505.07H25.1V519.07ZM34.6 519.07H26.77V505.07H34.6V519.07ZM44.1 519.07H36.27V505.07H44.1V519.07ZM53.6 519.07H45.77V505.07H53.6V519.07ZM63.1 519.07H55.27V505.07H63.1V519.07ZM72.6 519.07H64.77V505.07H72.6V519.07ZM82.1 519.07H74.27V505.07H82.1V519.07ZM91.6 519.07H83.77V505.07H91.6V519.07ZM101.1 519.07H93.27V505.07H101.1V519.07ZM111.1 519.07H102.77V505.07H111.1V519.07Z" fill="#435FC4"/>
<path opacity="0.1" d="M6.51001 550.56C6.89001 552.06 7.32001 553.56 7.77001 555.04V551.56H15.6V565.56H11.42C11.54 565.89 11.67 566.23 11.81 566.56H112.81V550.56H6.51001ZM25.1 565.56H17.27V551.56H25.1V565.56ZM34.6 565.56H26.77V551.56H34.6V565.56ZM44.1 565.56H36.27V551.56H44.1V565.56ZM53.6 565.56H45.77V551.56H53.6V565.56ZM63.1 565.56H55.27V551.56H63.1V565.56ZM72.6 565.56H64.77V551.56H72.6V565.56ZM82.1 565.56H74.27V551.56H82.1V565.56ZM91.6 565.56H83.77V551.56H91.6V565.56ZM101.1 565.56H93.27V551.56H101.1V565.56ZM111.1 565.56H102.77V551.56H111.1V565.56Z" fill="#435FC4"/>
<path opacity="0.1" d="M28.68 597.01C28.92 597.34 29.16 597.68 29.41 598.01H34.6V604.72C35.15 605.39 35.71 606.05 36.27 606.72V598.02H44.1V612.02H40.93C41.24 612.35 41.55 612.69 41.88 613.02H112.77V597.02L28.68 597.01ZM53.6 612.01H45.77V598.01H53.6V612.01ZM63.1 612.01H55.27V598.01H63.1V612.01ZM72.6 612.01H64.77V598.01H72.6V612.01ZM82.1 612.01H74.27V598.01H82.1V612.01ZM91.6 612.01H83.77V598.01H91.6V612.01ZM101.1 612.01H93.27V598.01H101.1V612.01ZM111.1 612.01H102.77V598.01H111.1V612.01Z" fill="#435FC4"/>
<path opacity="0.1" d="M81.04 643.46C81.94 643.97 82.85 644.46 83.77 644.95V644.46H91.6V648.88L93.27 649.64V644.46H101.1V652.95L102.77 653.59V644.46H111.1V656.46L112.77 656.98V643.46H81.04Z" fill="#435FC4"/>
<path opacity="0.1" d="M347.38 306.51C347.38 306.51 339.23 328.95 356.05 331C356.82 331.379 357.69 331.505 358.536 331.359C359.382 331.214 360.161 330.804 360.76 330.19C360.76 330.19 359.59 329.8 360.67 327.61C361.048 326.832 361.337 326.013 361.53 325.17C361.783 324.024 361.657 322.828 361.17 321.76C361.17 321.76 360.42 314.55 350.66 308.94C350.66 308.94 348.92 306.41 348.31 306.31L348.81 310.66C348.81 310.66 351.98 310.16 353.99 311.88C353.99 311.88 348.99 310.53 348.86 311.31C348.86 311.46 349.23 313.6 349.23 313.6C349.23 313.6 354.75 312.76 357.76 315.52C357.76 315.52 351.98 313.1 349.37 314.41L350.15 317.59C350.15 317.59 355.94 316.43 359.49 319.43C359.49 319.43 353.37 317.12 350.37 318.28L351.56 321.28C351.56 321.28 357.23 320.28 360.17 322.77C360.17 322.77 352.81 320.77 351.88 321.95C352.392 323.114 353.044 324.212 353.82 325.22C353.82 325.22 357.91 324.58 359.48 326.22C359.48 326.22 354.43 325.43 354.25 325.95C354.25 325.95 356.84 329.05 358.98 329.95C356.97 329.239 355.181 328.015 353.79 326.4C353.657 327.708 353.911 329.025 354.52 330.19C354.52 330.19 352.34 329.19 353.17 325.64C353.17 325.64 351.25 323.15 351.25 322.64C351.25 322.64 349.93 326.01 350.25 328.39C350.25 328.39 348.65 325.9 350.91 321.85L349.65 318.85C349.65 318.85 347.65 323.22 347.79 325.36C347.79 325.36 346.55 322.57 349.39 318.06L348.6 314.95C347.553 316.839 346.757 318.856 346.23 320.95C346.23 320.95 345.63 318.12 348.4 314.01L348.11 311.87C348.11 311.87 346.71 314.55 346.38 315.36C346.05 316.17 345.8 316.14 345.8 316.14C346.03 314.249 346.782 312.459 347.97 310.97C347.97 310.97 347.65 306.51 347.38 306.51Z" fill="#435FC4"/>
<path opacity="0.1" d="M279.51 472.07C279.51 472.07 271.36 494.52 288.18 496.57C288.951 496.949 289.822 497.074 290.669 496.927C291.515 496.779 292.293 496.367 292.89 495.75C292.89 495.75 291.72 495.36 292.8 493.18C293.184 492.401 293.473 491.578 293.66 490.73C293.918 489.585 293.792 488.386 293.3 487.32C293.3 487.32 292.55 480.11 282.79 474.51C282.79 474.51 281.05 471.98 280.44 471.88L280.94 476.22C280.94 476.22 284.12 475.73 286.12 477.45C286.12 477.45 281.12 476.1 280.99 476.87C280.99 477.03 281.36 479.16 281.36 479.16C281.36 479.16 286.88 478.33 289.89 481.08C289.89 481.08 284.11 478.67 281.5 479.97L282.28 483.16C282.28 483.16 288.07 481.99 291.62 485C291.62 485 285.5 482.68 282.5 483.84L283.69 486.84C283.69 486.84 289.36 485.84 292.3 488.33C292.3 488.33 284.95 486.33 284.01 487.52C284.522 488.684 285.174 489.782 285.95 490.79C285.95 490.79 290.04 490.14 291.62 491.79C291.62 491.79 286.56 491 286.38 491.53C286.38 491.53 288.97 494.62 291.11 495.53C289.1 494.825 287.31 493.604 285.92 491.99C285.788 493.294 286.042 494.609 286.65 495.77C286.65 495.77 284.47 494.77 285.3 491.23C285.3 491.23 283.39 488.73 283.38 488.23C283.38 488.23 282.06 491.61 282.38 493.98C282.38 493.98 280.78 491.5 283.04 487.44L281.78 484.44C281.78 484.44 279.78 488.81 279.93 490.94C279.93 490.94 278.69 488.16 281.53 483.65L280.73 480.54C279.682 482.428 278.885 484.445 278.36 486.54C278.36 486.54 277.76 483.7 280.53 479.6L280.24 477.45C280.24 477.45 278.84 480.13 278.51 480.94C278.18 481.75 277.93 481.72 277.93 481.72C278.161 479.827 278.916 478.037 280.11 476.55C280.11 476.55 279.78 472.07 279.51 472.07Z" fill="#435FC4"/>
<path opacity="0.1" d="M247.17 260.48C247.17 260.48 239.03 282.92 255.84 284.97C256.612 285.348 257.484 285.474 258.331 285.328C259.178 285.183 259.958 284.774 260.56 284.16C260.56 284.16 259.38 283.77 260.47 281.58C260.847 280.799 261.132 279.977 261.32 279.13C261.576 277.989 261.453 276.795 260.97 275.73C260.97 275.73 260.22 268.52 250.45 262.91C250.45 262.91 248.71 260.38 248.1 260.28L248.61 264.63C248.61 264.63 251.78 264.13 253.78 265.85C253.78 265.85 248.78 264.5 248.65 265.28C248.65 265.43 249.02 267.57 249.02 267.57C249.02 267.57 254.54 266.73 257.56 269.49C257.56 269.49 251.78 267.07 249.16 268.38L249.94 271.56C249.94 271.56 255.73 270.39 259.29 273.4C259.29 273.4 253.16 271.08 250.16 272.25L251.35 275.25C251.35 275.25 257.02 274.25 259.96 276.75C259.96 276.75 252.61 274.75 251.67 275.93C252.182 277.094 252.834 278.192 253.61 279.2C253.61 279.2 257.7 278.56 259.28 280.2C259.28 280.2 254.23 279.41 254.05 279.93C254.05 279.93 256.63 283.03 258.77 283.93C256.762 283.216 254.973 281.993 253.58 280.38C253.447 281.688 253.701 283.005 254.31 284.17C254.31 284.17 252.13 283.17 252.97 279.62C252.97 279.62 251.05 277.13 251.04 276.62C251.04 276.62 249.73 279.99 250.04 282.37C250.04 282.37 248.43 279.88 250.7 275.83L249.43 272.83C249.43 272.83 247.43 277.2 247.58 279.34C247.58 279.34 246.34 276.55 249.18 272.04L248.38 268.93C247.333 270.819 246.537 272.836 246.01 274.93C246.01 274.93 245.42 272.1 248.18 267.99L247.9 265.85C247.9 265.85 246.49 268.53 246.16 269.33C245.83 270.13 245.58 270.12 245.58 270.12C245.811 268.227 246.566 266.437 247.76 264.95C247.76 264.95 247.45 260.48 247.17 260.48Z" fill="#435FC4"/>
<path opacity="0.1" d="M307.61 382.68C307.61 382.68 313.9 405.68 328.82 397.68C329.668 397.545 330.451 397.146 331.058 396.539C331.666 395.931 332.065 395.148 332.2 394.3C332.2 394.3 331.02 394.66 330.65 392.25C330.509 391.395 330.267 390.559 329.93 389.76C329.487 388.674 328.695 387.767 327.68 387.18C327.68 387.18 322.91 381.72 311.68 382.76C311.68 382.76 308.8 381.71 308.24 381.98L311.16 385.23C311.16 385.23 313.47 383 316.1 383.23C316.1 383.23 311.21 385.03 311.57 385.72C311.65 385.86 313.19 387.38 313.19 387.38C313.19 387.38 317.19 383.51 321.27 384.02C321.27 384.02 315.16 385.38 313.78 387.96L316.25 390.11C316.25 390.11 320.31 385.82 324.95 386.22C324.95 386.22 318.6 387.86 316.82 390.54L319.54 392.33C319.54 392.33 323.54 388.22 327.44 388.59C327.44 388.59 320.3 391.22 320.19 392.7C321.282 393.357 322.451 393.878 323.67 394.25C323.67 394.25 326.67 391.37 328.86 391.78C328.86 391.78 324.27 394.05 324.43 394.58C324.43 394.58 328.33 395.58 330.58 395.1C328.531 395.681 326.366 395.715 324.3 395.2C324.943 396.345 325.91 397.274 327.08 397.87C327.08 397.87 324.72 398.3 323.36 394.93C323.36 394.93 320.36 394 320.04 393.58C320.04 393.58 320.92 397.1 322.54 398.86C322.54 398.86 319.8 397.75 319.31 393.13L316.54 391.4C316.54 391.4 317.45 396.11 318.77 397.78C318.77 397.78 316.15 396.22 315.87 390.9L313.43 388.82C313.668 390.978 314.185 393.096 314.97 395.12C314.97 395.12 312.86 393.12 312.75 388.2L311.28 386.61C311.28 386.61 311.68 389.61 311.87 390.46C312.06 391.31 311.87 391.46 311.87 391.46C310.969 389.78 310.554 387.883 310.67 385.98C310.67 385.98 307.84 382.53 307.61 382.68Z" fill="#435FC4"/>
<path opacity="0.1" d="M572 118.694C572 118.694 578.29 141.694 593.2 133.694C594.05 133.563 594.837 133.164 595.446 132.557C596.055 131.949 596.456 131.164 596.59 130.314C596.59 130.314 595.4 130.674 595.03 128.314C594.897 127.458 594.658 126.622 594.32 125.824C593.87 124.74 593.076 123.833 592.06 123.244C592.06 123.244 587.29 117.784 576.06 118.834C576.06 118.834 573.18 117.774 572.63 118.044L575.54 121.294C575.54 121.294 577.85 119.064 580.48 119.294C580.48 119.294 575.59 121.094 575.96 121.784C576.03 121.924 577.58 123.444 577.58 123.444C577.58 123.444 581.58 119.574 585.66 120.084C585.66 120.084 579.54 121.444 578.16 124.024L580.64 126.174C580.64 126.174 584.64 121.884 589.33 122.284C589.33 122.284 582.99 123.924 581.21 126.604L583.93 128.394C583.93 128.394 587.93 124.284 591.82 124.654C591.82 124.654 584.68 127.284 584.58 128.764C585.669 129.421 586.834 129.942 588.05 130.314C588.05 130.314 591.05 127.434 593.24 127.844C593.24 127.844 588.66 130.114 588.81 130.644C588.81 130.644 592.71 131.644 594.97 131.164C592.918 131.744 590.75 131.779 588.68 131.264C589.327 132.406 590.293 133.334 591.46 133.934C591.46 133.934 589.1 134.364 587.74 130.994C587.74 130.994 584.74 130.064 584.43 129.644C584.43 129.644 585.3 133.164 586.92 134.924C586.92 134.924 584.18 133.814 583.69 129.194L580.92 127.444C580.92 127.444 581.83 132.154 583.16 133.824C583.16 133.824 580.54 132.264 580.26 126.944L577.81 124.864C578.047 127.023 578.568 129.141 579.36 131.164C579.36 131.164 577.24 129.164 577.13 124.244L575.66 122.654C575.66 122.654 576.06 125.654 576.25 126.504C576.44 127.354 576.25 127.504 576.25 127.504C575.349 125.824 574.934 123.927 575.05 122.024C575.05 122.024 572.23 118.544 572 118.694Z" fill="#435FC4"/>
<path d="M414.23 634.2C414.23 634.2 466.11 616.73 455.37 554.83L389.47 537.72L374.17 588.51L414.23 634.2Z" fill="#C5D7DB"/>
<path opacity="0.1" d="M374.17 588.51L414.22 634.2C414.22 634.2 466.1 616.73 455.36 554.83L374.17 588.51Z" fill="black"/>
<path d="M156.17 131.21C156.17 131.21 163.17 142.6 172.74 136.91C182.31 131.22 173.13 115.5 173.13 115.5C173.13 115.5 154.8 112.99 156.17 131.21Z" fill="#FEE353"/>
<path opacity="0.1" d="M172.74 136.91C171.611 137.64 170.345 138.132 169.019 138.356C167.693 138.58 166.336 138.53 165.03 138.21C161.52 137.32 158.82 134.62 157.37 132.85C156.937 132.331 156.537 131.787 156.17 131.22C155.68 124.72 157.7 120.85 160.5 118.57C164.35 115.44 169.68 115.31 171.98 115.41C172.69 115.41 173.1 115.51 173.1 115.51L173.29 115.83C173.56 116.34 174.15 117.47 174.78 118.98C176.92 123.93 179.47 132.9 172.74 136.91Z" fill="black"/>
<path d="M419.33 551.92L455.33 554.83L522.33 555.38L469.54 620.38C469.54 620.38 452.79 621.29 449.34 623.65C445.89 626.01 397.45 624.75 397.45 624.75L389.63 591.43L419.33 551.92Z" fill="#BD9A66"/>
<path opacity="0.05" d="M419.33 551.92L455.33 554.83L522.33 555.38L469.54 620.38C469.54 620.38 452.79 621.29 449.34 623.65C445.89 626.01 397.45 624.75 397.45 624.75L389.63 591.43L419.33 551.92Z" fill="black"/>
<path d="M382.92 377.16L391.29 391.36L393.11 416.12C393.11 416.12 398.94 437.23 403.31 443.42C407.68 449.61 409.5 466 409.5 466C409.5 466 411.32 481.29 413.5 484.56C415.68 487.83 418.6 511.56 418.6 511.56C418.6 511.56 437.9 550.15 455.37 554.88C455.37 554.88 368.72 583.28 414.23 634.25C414.23 634.25 381.83 642.25 374.18 633.16C366.53 624.07 346.51 489.35 346.51 489.35L352.7 375.75L382.92 377.16Z" fill="#C5D7DB"/>
<path opacity="0.05" d="M382.92 377.16L391.29 391.36L393.11 416.12C393.11 416.12 398.94 437.23 403.31 443.42C407.68 449.61 409.5 466 409.5 466C409.5 466 411.32 481.29 413.5 484.56C415.68 487.83 418.6 511.56 418.6 511.56C418.6 511.56 437.9 550.15 455.37 554.88C455.37 554.88 368.72 583.28 414.23 634.25C414.23 634.25 381.83 642.25 374.18 633.16C366.53 624.07 346.51 489.35 346.51 489.35L352.7 375.75L382.92 377.16Z" fill="black"/>
<path d="M277.79 238.77C275.358 251.384 276.08 264.402 279.89 276.67L266.41 315.26C266.41 315.26 163.74 258.1 172.48 244.26C177.43 236.41 178.06 215.64 177.66 199.14C177.37 186.6 176.48 176.54 176.48 176.54C176.48 176.54 302.48 188.93 285.71 217.69C281.915 224.227 279.238 231.351 277.79 238.77Z" fill="#BD9A66"/>
<path opacity="0.1" d="M285.71 217.69C281.915 224.227 279.238 231.351 277.79 238.77C259.091 244.752 238.898 244.073 220.643 236.848C202.389 229.623 187.2 216.299 177.66 199.14C177.37 186.6 176.48 176.54 176.48 176.54C176.48 176.54 302.45 188.93 285.71 217.69Z" fill="black"/>
<path d="M336.68 155.79C336.689 169.139 333.547 182.301 327.512 194.207C321.476 206.113 312.716 216.427 301.943 224.311C291.171 232.194 278.69 237.424 265.516 239.576C252.342 241.727 238.846 240.74 226.125 236.694C213.405 232.648 201.818 225.658 192.307 216.291C182.797 206.924 175.631 195.445 171.392 182.788C167.153 170.13 165.96 156.65 167.911 143.445C169.862 130.24 174.902 117.681 182.62 106.79C183.82 105.103 185.083 103.457 186.41 101.85C193.969 92.6622 203.376 85.1667 214.02 79.85C219.795 76.9609 225.886 74.7528 232.17 73.27C243.518 70.5817 255.297 70.2572 266.775 72.3165C278.253 74.3759 289.185 78.7752 298.89 85.2406C308.596 91.7061 316.867 100.099 323.189 109.898C329.511 119.698 333.749 130.693 335.64 142.2C336.346 146.695 336.694 151.24 336.68 155.79Z" fill="#BD9A66"/>
<path d="M370.17 504.6C368.9 511.38 370.49 523.77 372.9 536.38C373 536.93 373.11 537.48 373.22 538.03C373.33 538.58 373.49 539.43 373.63 540.12C374.74 545.54 375.95 550.91 377.13 555.79C378.31 560.67 379.37 564.85 380.27 568.29C381.63 573.44 382.56 576.68 382.56 576.68C382.56 576.68 382.68 579.86 382.84 584.92C382.93 587.84 383.03 591.4 383.13 595.33C383.13 596.47 383.2 597.63 383.23 598.83C383.28 600.92 383.33 603.09 383.38 605.31C383.38 606.03 383.38 606.75 383.43 607.48C383.43 609.87 383.52 612.31 383.56 614.74C383.61 618.08 383.65 621.42 383.67 624.66C383.67 625.9 383.67 627.12 383.67 628.32C383.67 631.42 383.67 634.39 383.67 637.12C383.56 644.87 383.25 650.72 382.59 652.41C382.36 652.99 382.15 653.62 381.95 654.28C381.083 657.384 380.454 660.55 380.07 663.75L378.37 662.36C375.12 659.68 371.9 656.94 368.63 654.28C363.195 649.727 357.425 645.589 351.37 641.9C350.96 641.66 350.55 641.42 350.13 641.19C349.01 640.54 347.87 639.93 346.71 639.35C344.32 638.145 341.87 637.064 339.37 636.11C327.82 631.71 315.45 630.11 302.91 630.38C297.91 632.29 294.66 633.66 294.66 633.66L288.3 635.58L287.24 635.9C280.35 638 270.66 640.98 267.17 642.22C261.53 644.22 212.56 654.41 212.56 654.41C208.086 655.631 203.516 656.468 198.9 656.91C190.495 659.274 181.938 661.065 173.29 662.27C153.637 664.782 133.677 663.175 114.68 657.55C114.113 657.584 113.544 657.567 112.98 657.5C113.33 657.5 113.67 657.42 113.98 657.36L112.76 657L111.09 656.48C108.29 655.6 105.513 654.637 102.76 653.59L101.09 652.95C98.4233 651.923 95.8133 650.82 93.26 649.64L91.59 648.88C88.9233 647.64 86.3133 646.33 83.76 644.95C82.84 644.47 81.93 643.95 81.03 643.46C78.31 641.94 75.6433 640.347 73.03 638.68C72.59 634.91 72.36 632.39 72.36 632.39L68.46 612.97L68.26 611.97L65.46 597.97L65.26 596.97L59.17 566.51L58.97 565.51L56.17 551.51L55.97 550.51L49.8 520.07L49.6 519.07L46.8 505.07L46.6 504.07L40.48 473.57L40.28 472.57L37.48 458.62L37.28 457.62L36.17 452.12L34.5 443.79C34.5 443.79 29.17 436.17 23.17 427.16L22.5 426.16C20.79 423.63 19.03 421 17.32 418.42C16.75 417.57 16.2 416.73 15.65 415.9C14.8167 414.64 14.01 413.41 13.23 412.21L12.69 411.38L12.58 411.21C3.95999 397.87 9.72998 392.07 9.72998 392.07C9.72998 392.07 13.35 387.17 18.02 380.69C18.25 380.36 18.49 380.03 18.74 379.69C20.74 376.89 22.94 373.83 25.1 370.77L26.77 368.39C27.4 367.5 28.02 366.61 28.62 365.73C28.86 365.4 29.09 365.06 29.31 364.73C33.92 358.07 37.72 352.26 38.5 350.2C39.72 346.95 47.5 337.34 55.25 328.91C61.36 322.25 67.44 316.33 70.17 314.91C76.36 311.64 78.91 301.07 78.91 301.07C78.91 301.07 92.38 296.35 94.2 292.71C96.02 289.07 121.51 272.71 121.51 272.71C121.51 272.71 131.82 266.07 135.99 262.07C136.58 261.547 137.095 260.945 137.52 260.28C138.97 257.68 148.44 255.54 152.29 254.77C153.29 254.57 153.91 254.46 153.91 254.46C155.464 251.636 157.429 249.058 159.74 246.81C161.31 245.42 163.27 240.63 164.92 235.99C166.71 230.93 168.1 226.06 168.1 226.06C171.02 216.23 176.84 219.14 176.84 219.14C176.832 220.483 176.959 221.823 177.22 223.14C179.65 235.14 192.85 240.14 199.78 245.75C207.43 251.93 219.44 267.96 228.91 271.23C236.75 273.94 245.84 284.16 248.72 287.57L248.94 287.83C249.42 288.39 249.66 288.71 249.66 288.71C249.66 288.71 255.03 288.43 258.3 288.37H259.49C260.155 288.303 260.787 288.046 261.31 287.63C264.56 285.42 269.4 278.94 271.51 277.45C274.05 275.62 276.61 246.13 276.61 246.13L276.74 246.07C285.81 241.82 295.54 284.36 295.54 284.36C295.54 284.36 312.65 289.46 314.11 293.1C314.39 293.82 315.68 295.1 317.62 296.65C326.453 303.401 335.855 309.373 345.72 314.5C345.94 314.61 346.15 314.72 346.37 314.81C346.568 314.917 346.772 315.014 346.98 315.1C347.35 315.28 347.71 315.44 348.05 315.59C348.59 315.83 349.09 316.03 349.55 316.19L350.15 316.4C351.583 316.877 352.933 317.575 354.15 318.47C354.51 318.73 354.87 319 355.22 319.29C356.582 320.423 357.834 321.682 358.96 323.05C359.13 323.25 359.29 323.46 359.45 323.66C360.21 324.61 360.89 325.55 361.45 326.42C362.369 327.762 363.207 329.158 363.96 330.6C363.96 330.6 378.88 356.09 383.62 358.99C388.36 361.89 391.27 391.4 391.27 391.4L375.27 450.71C375.27 450.71 374.52 465.71 373.12 481.01C372.34 489.59 371.35 498.32 370.17 504.6Z" fill="#C5D7DB"/>
<path d="M249.66 290.51C249.66 290.51 238.93 296.33 230.55 296.88C229.453 296.931 228.354 296.868 227.27 296.69C218.49 295.36 205.61 288.14 205.61 288.14L220.72 271.57L239.1 280.68L245.86 286.97L249.66 290.51Z" fill="#3C405C"/>
<path opacity="0.1" d="M335.6 142.2C335.22 142.738 334.788 143.237 334.31 143.69C329.05 148.69 319.71 146.62 312.54 145.46C306.31 144.441 300.223 142.682 294.41 140.22C289.35 138.06 283.28 135.42 278.73 138.52C276.98 139.7 275.78 141.59 273.96 142.63C272.14 143.67 269.82 143.74 267.67 143.77C260.67 143.77 253.67 143.85 246.84 142.27C236.65 139.89 226.11 133.9 216.42 137.85C208.84 140.93 204.73 149.18 202.68 157.11C201.68 161 200.94 165.11 198.68 168.41C196.42 171.71 192.05 174.05 188.33 172.5C182.84 170.21 182.03 160.89 175.41 160.42C168.14 159.91 168.23 167.42 170.35 172.85C173.49 180.85 177.6 188.85 177.78 197.19C169.967 183.196 166.275 167.275 167.131 151.271C167.988 135.266 173.358 119.83 182.62 106.75C184.232 105.752 185.493 104.277 186.23 102.53C186.304 102.294 186.364 102.053 186.41 101.81C186.96 99.02 185.41 96.09 185.32 93.17C184.97 86.04 192.69 81.07 199.77 80.17C204.48 79.57 209.3 80.03 214.02 79.88C216.397 79.8276 218.762 79.5124 221.07 78.94C225.052 77.7468 228.781 75.8316 232.07 73.29C243.418 70.6017 255.197 70.2772 266.675 72.3366C278.153 74.3959 289.085 78.7952 298.79 85.2606C308.496 91.7261 316.767 100.119 323.089 109.918C329.411 119.718 333.649 130.713 335.54 142.22L335.6 142.2Z" fill="black"/>
<path d="M337.31 136.31C336.812 138.288 335.773 140.088 334.31 141.51C329.05 146.51 319.71 144.43 312.54 143.27C306.309 142.274 300.222 140.528 294.41 138.07C289.35 135.92 283.28 133.28 278.73 136.38C276.98 137.56 275.78 139.45 273.96 140.49C272.14 141.53 269.82 141.6 267.67 141.62C260.67 141.67 253.67 141.71 246.84 140.13C236.65 137.74 226.11 131.76 216.42 135.7C208.84 138.78 204.73 147.04 202.68 154.97C201.68 158.86 200.94 162.97 198.68 166.26C196.42 169.55 192.05 171.91 188.33 170.36C182.84 168.07 182.03 158.75 175.41 158.28C168.14 157.77 168.23 165.28 170.35 170.71C174.07 180.18 179.13 189.6 177.47 199.64C175.82 199.64 173.09 199.58 171.47 199.54C172.73 197.39 170.33 194.83 167.94 194.1C165.55 193.37 162.76 193.38 160.94 191.64C159.12 189.9 159.11 187.21 159.3 184.8C159.715 179.649 160.975 174.601 163.03 169.86C164.34 166.86 166.03 163.61 165.03 160.47C164.43 159.047 163.707 157.678 162.87 156.38C160.79 152.38 161.28 147.38 163.06 143.25C163.82 141.49 164.37 139.83 165 138.25C165.796 136.004 166.947 133.901 168.41 132.02C170.7 129.17 172.94 124.88 170.41 122.23C169.77 121.56 171.05 121.1 170.64 120.23C170.568 120.081 170.517 119.923 170.49 119.76C170.372 118.707 170.627 117.645 171.21 116.76C171.328 116.53 171.458 116.306 171.6 116.09C171.715 115.861 171.845 115.641 171.99 115.43C174.204 111.733 177.147 108.525 180.64 106C182.81 104.43 185.35 102.92 186.21 100.38C187.21 97.38 185.45 94.19 185.3 91.02C184.95 83.89 192.67 78.92 199.75 78.02C206.83 77.12 214.17 78.61 221.07 76.78C230.86 74.2 237.74 65.56 246.63 60.71C251.493 58.1096 256.887 56.655 262.398 56.4574C267.909 56.2599 273.393 57.3245 278.43 59.57C288.81 64.31 296.64 73.89 307.48 77.49C311.32 78.77 315.48 79.28 318.94 81.4C322.94 83.86 325.37 88.16 327.45 92.4C330.62 98.83 331.26 105.29 333.45 112.1C335.19 117.5 337.6 124.56 337.8 130.78C337.912 132.637 337.747 134.501 337.31 136.31Z" fill="#3A5048"/>
<g opacity="0.1">
<path opacity="0.1" d="M171.71 123.78C171.87 123.14 171.886 122.472 171.756 121.826C171.626 121.179 171.354 120.569 170.96 120.04C171.22 120.82 170.09 121.27 170.71 121.92C171.204 122.439 171.549 123.082 171.71 123.78Z" fill="black"/>
<path opacity="0.1" d="M170.93 117.75C170.812 118.099 170.742 118.462 170.72 118.83C170.91 118.51 171.17 118.18 170.93 117.75Z" fill="black"/>
<path opacity="0.1" d="M334.59 139.07C329.32 144.07 319.99 142 312.8 140.83C306.574 139.828 300.492 138.071 294.69 135.6C289.62 133.44 283.56 130.8 279 133.9C277.26 135.08 276.06 136.97 274.23 138.01C272.4 139.05 270.09 139.12 267.94 139.14C260.94 139.14 253.94 139.23 247.1 137.64C236.92 135.26 226.38 129.29 216.69 133.22C209.11 136.31 205 144.56 202.95 152.49C201.95 156.38 201.22 160.49 198.95 163.79C196.68 167.09 192.31 169.43 188.6 167.89C183.11 165.59 182.3 156.28 175.68 155.81C170.51 155.44 169.07 159.14 169.42 163.25C169.72 160.11 171.42 157.69 175.68 157.99C182.3 158.46 183.11 167.78 188.6 170.07C192.31 171.62 196.69 169.29 198.95 165.97C201.21 162.65 201.95 158.56 202.95 154.68C205 146.75 209.11 138.49 216.69 135.41C226.38 131.47 236.92 137.41 247.1 139.83C253.9 141.42 260.96 141.37 267.94 141.32C270.09 141.32 272.36 141.26 274.23 140.2C276.1 139.14 277.23 137.27 279 136.08C283.56 132.99 289.62 135.63 294.69 137.78C300.493 140.25 306.574 142.009 312.8 143.02C319.99 144.18 329.32 146.27 334.59 141.25C337.45 138.52 338.31 134.57 338.12 130.25C337.96 133.68 336.96 136.79 334.59 139.07Z" fill="black"/>
<path opacity="0.1" d="M185.65 89.21C185.595 89.708 185.575 90.2092 185.59 90.71C185.69 92.79 186.48 94.87 186.73 96.9C187.1 94.41 185.95 91.81 185.65 89.21Z" fill="black"/>
<path opacity="0.1" d="M165.33 160.16C165.412 160.459 165.476 160.763 165.52 161.07C165.682 160.038 165.617 158.984 165.33 157.98C164.734 156.552 164.011 155.179 163.17 153.88C162.419 152.401 161.973 150.785 161.86 149.13C161.657 151.519 162.11 153.919 163.17 156.07C164.013 157.365 164.736 158.734 165.33 160.16Z" fill="black"/>
<path opacity="0.1" d="M177.74 197.14L171.89 197.05C172.026 197.403 172.081 197.783 172.05 198.161C172.019 198.538 171.903 198.904 171.71 199.23C173.36 199.23 176.1 199.29 177.71 199.33C177.99 197.618 178.087 195.882 178 194.15C177.977 195.151 177.89 196.15 177.74 197.14Z" fill="black"/>
<path opacity="0.1" d="M168.17 191.61C165.78 190.89 163 190.88 161.22 189.13C160.172 187.984 159.581 186.493 159.56 184.94C159.41 187.24 159.56 189.72 161.22 191.32C163 193.07 165.78 193.08 168.17 193.8C168.948 194.026 169.671 194.409 170.295 194.925C170.919 195.441 171.431 196.079 171.8 196.8C172.81 194.73 170.49 192.3 168.17 191.61Z" fill="black"/>
</g>
<path opacity="0.1" d="M350.1 641.19C348.98 640.54 347.84 639.93 346.68 639.35C344.29 638.145 341.84 637.064 339.34 636.11C327.79 631.71 315.42 630.11 302.88 630.38C297.88 632.29 294.63 633.66 294.63 633.66L288.27 635.58L287.21 635.9C287.14 635.2 287.06 634.5 286.99 633.79C286.92 633.08 286.84 632.4 286.76 631.7C284.52 610.49 282.76 588.7 282.76 588.7V569.88V567.69L282.64 512.24L281.64 493.96L281.17 485.87L281.08 484.33L280.9 481.17L280.8 479.29C280.579 478.694 280.392 478.087 280.24 477.47C280.17 477.22 280.1 476.94 280.04 476.65C279.79 475.65 279.52 474.36 279.24 472.96C277.41 463.76 275.12 448.25 274.98 445.1C274.8 440.9 271.16 415.78 271.16 415.78C270.79 401.95 259.16 375.91 256.23 371C253.3 366.09 250.03 336.59 251.13 335C251.7 334.15 252.07 329.12 252.3 324.48C252.3 323.95 252.35 323.43 252.37 322.92C252.52 319.29 252.59 316.26 252.59 316.26L264.03 314L267.1 313.4L267.34 313.35L267.44 313.55C267.77 314.16 268.8 316.11 270.01 318.67C270.15 318.94 270.28 319.23 270.42 319.52C270.48 319.66 270.55 319.8 270.62 319.94C272.86 324.84 275.45 331.29 275.34 335C275.16 341.56 282.63 357.4 282.63 357.4C283.35 361.04 299.19 397.26 299.19 397.26C299.19 397.26 312.12 432.76 311.39 438.59C310.66 444.42 317.58 483.01 317.58 483.01L324.68 522.7C328.13 530.52 332.68 548.54 332.68 548.54L334.41 558.76L334.74 560.71L339.35 587.98L341.61 601.34C341.61 601.34 342.56 608.44 344 616.34C344.12 617.05 344.26 617.77 344.4 618.49C345.287 623.69 346.547 628.82 348.17 633.84C348.975 636.245 349.619 638.7 350.1 641.19Z" fill="black"/>
<path d="M351.34 641.9C350.93 641.66 350.52 641.42 350.1 641.19C348.98 640.54 347.84 639.93 346.68 639.35C344.29 638.145 341.84 637.064 339.34 636.11C327.79 631.71 315.42 630.11 302.88 630.38C297.88 632.29 294.63 633.66 294.63 633.66L288.27 635.58C288.19 634.88 288.12 634.18 288.04 633.47C287.96 632.76 287.9 632.19 287.84 631.55C285.6 610.39 283.84 588.7 283.84 588.7V569.7V567.51L283.72 512.2L282.72 494.74L282.52 491.12L282.38 488.67L282.2 485.43L282.02 482.14L281.89 479.77V479.25C281.89 479.2 281.89 479.14 281.82 479.08C281.63 478.54 281.4 477.72 281.15 476.68L281.03 476.18C280.98 475.95 280.92 475.7 280.87 475.45C278.99 466.92 276.23 448.53 276.08 445.08C275.9 440.88 272.26 415.76 272.26 415.76C271.89 401.93 260.26 375.89 257.33 370.98C254.4 366.07 251.14 336.57 252.23 334.98C252.86 333.98 253.23 327.91 253.47 322.9C253.47 322.5 253.47 322.11 253.47 321.74C253.6 318.65 253.65 316.24 253.65 316.24L264.29 314.14L266.99 313.61L267.41 313.53L268.41 313.33C268.41 313.33 269.72 315.75 271.29 319.08L271.49 319.5C273.78 324.44 276.49 331.16 276.41 334.98C276.23 341.54 283.7 357.38 283.7 357.38C284.42 361.02 300.26 397.24 300.26 397.24C300.26 397.24 313.19 432.74 312.46 438.57C311.73 444.4 318.65 482.99 318.65 482.99L325.75 522.68C329.2 530.5 333.75 548.52 333.75 548.52L335.36 558.04L335.69 559.97L339.32 581.49L342.67 601.32C342.67 601.32 343.67 608.39 345.05 616.32C345.18 617.04 345.31 617.76 345.45 618.49C346.336 623.714 347.596 628.867 349.22 633.91C350.107 636.522 350.815 639.192 351.34 641.9Z" fill="#3C405C"/>
<path d="M342.32 128.31C342.32 128.31 338.5 133.23 335.05 133.23C331.6 133.23 318.17 132.68 311.17 130.5C304.17 128.32 269.85 126.67 269.85 126.67C269.85 126.67 221.25 126.85 219.61 125.21C217.97 123.57 189.39 114.83 186.48 115.38C185.87 115.5 184.38 115.76 182.39 116.09L180.11 116.46C176.66 117.01 172.35 117.65 168.41 118.12C163.54 118.69 159.26 118.98 157.9 118.48V114.29C157.9 114.29 163.54 106.09 163.9 103.74C164.26 101.39 169 67.32 181.38 55.13C186.494 45.3531 194.771 37.598 204.86 33.13C221.61 25.84 238.36 19.66 238.36 19.66L241.29 19.24L250.74 17.84C251.027 17.554 251.338 17.2931 251.67 17.06C254.29 15.06 262.23 10.71 272.58 20.06L274.41 22.98C274.41 22.98 306.26 30.44 321 56.47C335.74 82.5 336.48 107.99 337.57 119.64C337.57 119.64 336.84 122.92 338.3 124.19C338.829 124.657 339.333 125.151 339.81 125.67C339.94 125.8 340.07 125.93 340.19 126.07C340.61 126.49 341 126.93 341.32 127.29C341.358 127.318 341.392 127.352 341.42 127.39C341.498 127.485 341.582 127.575 341.67 127.66L342.32 128.31Z" fill="#FEE353"/>
<path opacity="0.05" d="M342.32 128.31C342.32 128.31 338.5 133.23 335.05 133.23C331.6 133.23 318.17 132.68 311.17 130.5C304.17 128.32 269.85 126.67 269.85 126.67C269.85 126.67 221.25 126.85 219.61 125.21C217.97 123.57 189.39 114.83 186.48 115.38C185.87 115.5 184.38 115.76 182.39 116.09L181.87 112.89L181.74 112.1C181.74 112.1 236.9 100.27 273.67 106.47C310.44 112.67 337.57 119.57 337.57 119.57C337.57 119.57 336.84 122.85 338.3 124.12C338.829 124.587 339.333 125.081 339.81 125.6C339.94 125.73 340.07 125.86 340.19 126C340.61 126.42 341 126.86 341.32 127.22C341.358 127.248 341.392 127.282 341.42 127.32C341.498 127.415 341.582 127.505 341.67 127.59L342.32 128.31Z" fill="black"/>
<path opacity="0.1" d="M337.31 136.31C330.5 136.84 317.95 135.18 312.46 134.37C310.9 134.14 309.37 133.86 307.83 133.52C301.94 132.24 283.83 128.65 272.83 130.31C259.54 132.31 222.04 128.67 222.04 128.67C222.04 128.67 198.92 123.94 189.63 120.12C186.22 118.71 180.52 118.27 174.85 118.97C173.404 119.15 171.969 119.407 170.55 119.74C162.81 121.57 156.28 125.74 157.41 132.85C156.977 132.331 156.577 131.787 156.21 131.22C155.72 124.72 157.74 120.85 160.54 118.57L161.2 118.3C164.62 117.328 168.101 116.583 171.62 116.07C172.17 115.98 172.74 115.9 173.32 115.83C183.27 114.49 197.66 114.19 209.8 120.3C209.8 120.3 221.08 125.59 228.73 125.59C236.38 125.59 298.63 126.14 313.2 130.32C316.101 131.158 319.058 131.783 322.05 132.19C327.362 132.875 332.76 132.366 337.85 130.7C337.954 132.587 337.772 134.478 337.31 136.31Z" fill="black"/>
<path opacity="0.1" d="M342.32 128.31C342.32 128.31 338.5 133.23 335.05 133.23C331.6 133.23 318.17 132.68 311.17 130.5C304.17 128.32 269.85 126.67 269.85 126.67C269.85 126.67 221.25 126.85 219.61 125.21C217.97 123.57 189.39 114.83 186.48 115.38C185.87 115.5 184.38 115.76 182.39 116.09L180.11 116.46C176.15 116.44 172.208 116.999 168.41 118.12C163.54 118.69 159.26 118.98 157.9 118.48V117.65C158.949 117.041 160.042 116.513 161.17 116.07C167.918 114.18 174.867 113.099 181.87 112.85C190.6 112.53 200.81 113.55 209.78 118.07C209.78 118.07 221.06 123.36 228.71 123.36C236.36 123.36 298.61 123.9 313.18 128.09C316.082 128.92 319.039 129.542 322.03 129.95C328.592 130.777 335.256 129.82 341.32 127.18C341.358 127.208 341.392 127.242 341.42 127.28C341.498 127.375 341.582 127.465 341.67 127.55L342.32 128.31Z" fill="black"/>
<path d="M157.55 132.68C157.55 132.68 145.35 123.39 161.19 117.2C161.19 117.2 188.86 108.65 209.8 119.2C209.8 119.2 221.08 124.47 228.73 124.47C236.38 124.47 298.63 125.02 313.2 129.21C316.102 130.041 319.059 130.663 322.05 131.07C329.802 132.01 337.654 130.518 344.52 126.8C345.52 126.25 346.42 125.97 346.69 126.29C347.6 127.39 346.88 133.76 338.87 135.03C332.62 136.03 318.42 134.14 312.45 133.27C310.9 133.04 309.36 132.75 307.83 132.42C301.94 131.14 283.83 127.55 272.78 129.21C259.5 131.21 221.99 127.57 221.99 127.57C221.99 127.57 198.88 122.84 189.59 119.01C180.3 115.18 154.09 118.48 157.55 132.68Z" fill="#FEE353"/>
<path opacity="0.1" d="M260.4 35.07C259.4 33.63 246.55 23.34 241.31 19.18L250.76 17.78C251.047 17.494 251.358 17.2331 251.69 17C258.56 24.21 260.4 35.07 260.4 35.07Z" fill="black"/>
<path opacity="0.1" d="M218.72 90.26L214.53 96.45L230.55 95.91L230.91 88.99L218.72 90.26Z" fill="black"/>
<path opacity="0.1" d="M316.47 97.73L318.29 103.37L328.49 105.01L324.12 98.27L316.47 97.73Z" fill="black"/>
<path opacity="0.1" d="M141.35 287.07C142.44 288.89 178.3 336.07 187.77 334.76C197.24 333.45 141.35 287.07 141.35 287.07Z" fill="black"/>
<path opacity="0.1" d="M261.5 330.19C261.5 330.19 270.24 338.57 268.96 341.84C267.68 345.11 261.5 330.19 261.5 330.19Z" fill="black"/>
<path opacity="0.1" d="M166.11 387.72C166.11 387.72 158.46 423.58 162.47 424.72C166.48 425.86 166.11 387.72 166.11 387.72Z" fill="black"/>
<path opacity="0.1" d="M264.41 526.98C265.68 530.62 276.24 554.29 278.61 555.56C280.98 556.83 264.41 526.98 264.41 526.98Z" fill="black"/>
<path opacity="0.1" d="M387.11 429.77C386.74 431.04 377.64 438.51 379.64 441.24C381.64 443.97 387.11 429.77 387.11 429.77Z" fill="black"/>
<path opacity="0.1" d="M316.47 496.21C316.29 497.13 314.47 516.21 317.93 519.88C321.39 523.55 316.47 496.21 316.47 496.21Z" fill="black"/>
<path opacity="0.1" d="M409.75 595.33C407.11 596.8 404.38 598.22 401.6 599.58C398.6 601.04 395.6 602.43 392.54 603.74C391.32 604.27 390.1 604.79 388.89 605.29C387.05 606.05 385.23 606.78 383.43 607.48C377.96 609.62 372.69 611.48 368 613.05C366.18 613.66 364.44 614.22 362.82 614.74C354.66 617.33 349.24 618.74 349.24 618.74C348.002 618.475 346.735 618.371 345.47 618.43C345.12 618.43 344.76 618.43 344.39 618.43C342.696 618.553 341.011 618.766 339.34 619.07C328.17 621.07 312.39 626.68 302.88 630.35C297.88 632.26 294.63 633.63 294.63 633.63L288.27 635.55L287.21 635.87C280.32 637.97 270.63 640.95 267.14 642.19C261.5 644.19 212.53 654.38 212.53 654.38C208.056 655.601 203.486 656.438 198.87 656.88C187.495 657.924 176.061 658.184 164.65 657.66C153.19 658.4 134.65 655.88 123.86 654.18L122.14 653.91C117.97 653.23 115.32 652.74 115.32 652.74L116.72 650.81L145.43 611.2L145.6 610.96L172.35 574.07L173.35 572.73L175.78 569.38C175.78 569.38 177.24 567.38 182.86 567.25C183.52 567.25 184.24 567.25 185.03 567.25C189.751 567.63 194.408 568.58 198.9 570.08L200.2 570.47C219.57 576.02 249.51 574.63 249.51 574.63C249.51 574.63 268.14 571.63 282.78 569.83L283.87 569.69C288.654 569.014 293.471 568.597 298.3 568.44C307.22 568.62 326.52 563.89 326.52 563.89C330.67 563 332.42 562.25 334.76 560.58C335.07 560.36 335.4 560.12 335.76 559.86C336.76 559.11 337.91 558.19 339.39 557.05C342.09 554.98 345.88 552.17 351.84 548.23C352.36 547.89 352.91 547.55 353.5 547.23C354.09 546.91 354.84 546.48 355.56 546.12C361.332 543.387 367.417 541.372 373.68 540.12C378.875 539.003 384.146 538.278 389.45 537.95H390.24C405.24 537.15 420.56 539.72 429.52 548.15C431.087 549.632 432.452 551.313 433.58 553.15C434.128 554.023 434.615 554.931 435.04 555.87C435.857 557.661 436.465 559.54 436.85 561.47C436.923 561.83 436.983 562.19 437.03 562.55C437.03 562.66 437.03 562.76 437.03 562.87C437.03 563.16 437.09 563.45 437.11 563.74C437.91 575.71 425.49 586.53 409.75 595.33Z" fill="black"/>
<path d="M115.32 650.59C115.32 650.59 147.72 656.59 164.65 655.5C164.65 655.5 195.78 657.14 212.53 652.23C212.53 652.23 261.53 642.03 267.14 640.03C272.75 638.03 294.63 631.47 294.63 631.47C294.63 631.47 337.23 613.63 349.24 616.54C349.24 616.54 443.54 592.15 436.8 559.2C430.06 526.25 370.54 533.72 351.8 546.09C333.06 558.46 335.8 559.75 326.5 561.75C326.5 561.75 307.2 566.48 298.28 566.3C289.36 566.12 249.49 572.49 249.49 572.49C249.49 572.49 218.18 573.95 198.89 567.94C179.6 561.93 175.77 567.21 175.77 567.21L115.32 650.59Z" fill="#BD9A66"/>
<path opacity="0.1" d="M185.58 565.07C185.585 565.11 185.585 565.15 185.58 565.19C185.51 565.933 185.318 566.66 185.01 567.34C181.17 576.76 159.37 602.17 159.37 602.17C158.376 605.188 157.177 608.135 155.78 610.99C152.776 617.092 149.316 622.958 145.43 628.54C139.669 636.89 133.38 644.863 126.6 652.41H126.55C125.687 653.05 124.789 653.641 123.86 654.18C121.51 655.58 117.98 657.31 114.65 657.52C114.083 657.554 113.514 657.537 112.95 657.47C113.3 657.47 113.64 657.39 113.95 657.33L112.73 656.97L111.06 656.45C108.26 655.57 105.483 654.607 102.73 653.56L101.06 652.92C98.3933 651.893 95.7833 650.79 93.23 649.61L91.56 648.85C88.8933 647.61 86.2833 646.3 83.73 644.92C82.81 644.44 81.9 643.92 81 643.43C78.28 641.91 75.6133 640.317 73 638.65C70.2267 636.883 67.5133 635.04 64.86 633.12C62.86 629.41 61.21 626.12 60.31 624.35C58.67 621.06 58.53 616.35 58.73 612.94C58.73 612.59 58.73 612.26 58.79 611.94C58.96 609.8 59.22 608.33 59.22 608.33C57.7382 606.349 56.4014 604.264 55.22 602.09C54.5413 601.011 54.1552 599.774 54.1 598.5C54.1452 597.989 54.0978 597.474 53.96 596.98C53.19 593.82 49.88 588.39 46.82 584.98C44.54 582.47 44.4 573.09 44.62 566.44C44.75 562.44 45 559.5 45 559.5C44.5519 559.211 44.2166 558.777 44.05 558.27C43.2459 556.081 42.7022 553.806 42.43 551.49C42.43 551.16 42.34 550.83 42.29 550.49C41.65 545.9 41.36 541.29 41.36 541.29C33.96 535.9 30.44 527.49 28.8 519.99L28.59 518.99C27.6893 514.38 27.307 509.685 27.45 504.99C27.45 504.54 27.45 504.2 27.45 503.99C27.45 503.78 27.45 503.74 27.45 503.74C27.45 503.74 28.43 482.07 31.17 473.61C31.28 473.25 31.4 472.92 31.52 472.61C31.7219 472.079 31.9836 471.572 32.3 471.1C33.3 469.77 34.01 467.26 34.6 464.29C35.01 462.23 35.35 459.94 35.6 457.66C35.83 455.76 36.01 453.87 36.15 452.12C36.54 447.44 36.66 443.79 36.66 443.79L34.81 434.67C34.3 432.18 33.91 429.67 33.64 427.16C33.64 426.83 33.56 426.5 33.52 426.16C33.0523 421.525 32.9687 416.859 33.27 412.21C33.27 411.87 33.27 411.54 33.33 411.21C34.1108 400.621 36.8791 390.274 41.49 380.71L41.99 379.71C42.6567 378.377 43.3567 377.067 44.09 375.78C44.62 374.83 45.18 373.89 45.76 372.96C47.2976 370.47 48.9666 368.063 50.76 365.75C51.02 365.41 51.29 365.08 51.56 364.75C54.6804 360.881 58.1482 357.307 61.92 354.07C72.02 345.39 81.29 341.62 89.71 341.33C126.53 340.03 147.18 405.15 150.52 416.56C150.84 417.66 151 418.26 151 418.26C151 418.26 165.92 433.19 161.55 439.74C160.703 441.182 160.187 442.794 160.04 444.46C158.84 453.27 162.28 467.78 162.28 467.78C162.28 467.78 163.5 471.78 167.06 481.36L168.11 484.16C170.34 490.16 170.86 500.23 169.58 509.25C168.35 517.89 165.46 525.53 160.83 527.49C151.36 531.49 153.91 535.49 156.09 538.78C157.385 541.138 158.466 543.608 159.32 546.16C160.69 549.85 161.96 553.73 162.44 555.24C162.58 555.66 162.65 555.89 162.65 555.89C163.976 555.377 165.354 555.008 166.76 554.79C168.55 554.54 170.32 554.72 170.66 556.25C170.84 557.07 171.87 558.04 173.32 559.01C177.62 561.97 185.58 565.07 185.58 565.07Z" fill="black"/>
<path d="M183.4 565.07C183.339 565.831 183.146 566.575 182.83 567.27C179.01 576.7 157.19 602.17 157.19 602.17C156.192 605.187 154.992 608.134 153.6 610.99C151.187 615.918 148.458 620.684 145.43 625.26C139.161 634.716 132.216 643.706 124.65 652.16L124.42 652.41C124.42 652.41 123.54 653.08 122.14 653.94C119.638 655.537 116.882 656.693 113.99 657.36L112.77 657L111.1 656.48C108.3 655.6 105.523 654.637 102.77 653.59L101.1 652.95C98.4333 651.923 95.8233 650.82 93.27 649.64L91.6 648.88C88.9333 647.64 86.3233 646.33 83.77 644.95C82.85 644.47 81.94 643.95 81.04 643.46C78.32 641.94 75.6533 640.347 73.04 638.68C70.2666 636.913 67.5533 635.07 64.9 633.15C63.6733 632.27 62.46 631.367 61.26 630.44C59.91 627.88 58.83 625.72 58.16 624.38C56.52 621.09 56.38 616.38 56.58 612.97C56.58 612.62 56.58 612.29 56.64 611.97C56.81 609.83 57.07 608.36 57.07 608.36C57.07 608.36 56.26 607.27 55.28 605.79C54.73 604.97 54.14 604.02 53.61 603.08C52.61 601.32 51.83 599.54 51.98 598.53C52.0003 598.357 52.0003 598.183 51.98 598.01C51.965 597.672 51.9147 597.337 51.83 597.01C51.06 593.85 47.74 588.42 44.68 585.01C42.4 582.5 42.26 573.12 42.47 566.47C42.47 566.13 42.47 565.8 42.47 565.47C42.61 562.02 42.82 559.53 42.82 559.53C41.69 559.04 40.82 555.41 40.26 551.53L40.11 550.53C39.47 545.94 39.18 541.33 39.18 541.33C31.78 535.94 28.26 527.53 26.63 520.03C25.4944 514.777 25.0573 509.397 25.33 504.03C25.33 503.87 25.33 503.78 25.33 503.78C25.33 503.78 26.19 482 28.93 473.53C29.04 473.17 29.16 472.84 29.28 472.53C29.5199 472.011 29.8186 471.521 30.17 471.07C31.69 468.95 32.7 463.85 33.36 458.63L33.48 457.63C34.31 450.63 34.54 443.76 34.54 443.76L32.68 434.64C32.1733 432.14 31.7833 429.637 31.51 427.13C31.46 426.8 31.43 426.46 31.39 426.13C30.9224 421.495 30.8388 416.829 31.14 412.18C31.14 411.84 31.14 411.51 31.21 411.18C31.9861 400.59 34.7545 390.242 39.37 380.68C39.53 380.34 39.69 380.01 39.87 379.68C41.1557 377.083 42.5846 374.559 44.15 372.12C44.69 371.27 45.24 370.43 45.82 369.6C46.73 368.28 47.68 366.98 48.67 365.72L49.47 364.72C52.5637 360.866 56.0011 357.302 59.74 354.07C70.74 344.64 80.74 341 89.74 341.33C125.19 342.6 145.09 405.38 148.36 416.56C148.68 417.66 148.84 418.26 148.84 418.26C148.84 418.26 163.77 433.19 159.4 439.74C158.553 441.182 158.037 442.794 157.89 444.46C156.68 453.27 160.13 467.78 160.13 467.78C160.13 467.78 161.35 471.78 164.91 481.36C165.23 482.25 165.58 483.18 165.91 484.16C168.14 490.16 168.66 500.23 167.38 509.25C166.15 517.9 163.27 525.53 158.63 527.49C149.17 531.49 151.71 535.49 153.9 538.78C155.195 541.138 156.276 543.608 157.13 546.16C158.86 550.87 160.45 555.89 160.45 555.89C161.104 555.637 161.772 555.42 162.45 555.24C163.841 554.783 165.314 554.629 166.77 554.79C167.173 554.821 167.555 554.979 167.863 555.242C168.17 555.504 168.386 555.857 168.48 556.25C168.75 557.45 170.82 558.94 173.33 560.35C176.589 562.124 179.952 563.7 183.4 565.07Z" fill="#C5D7DB"/>
<path opacity="0.1" d="M51.78 468.91C55.24 468.73 92.38 454.35 100.03 459.26C107.68 464.17 155.03 496.03 155.03 496.03C155.03 496.03 125.36 457.26 99.51 448.16C73.66 439.06 51.78 468.91 51.78 468.91Z" fill="black"/>
<path opacity="0.1" d="M105.17 527.53C105.17 527.53 142.31 534.99 147.95 540.09L105.17 527.53Z" fill="black"/>
<path opacity="0.1" d="M98.02 583.07C97.48 583.62 84.02 613.83 85.1 613.83C86.18 613.83 97.66 595.83 97.66 595.83L98.02 583.07Z" fill="black"/>
<path opacity="0.1" d="M123.33 546.82C123.33 546.82 112.41 550.65 113.68 551.01C114.95 551.37 122.96 548.46 123.33 546.82Z" fill="black"/>
<path opacity="0.1" d="M112.41 592.52C114.23 596.34 120.05 607.81 121.33 605.99C122.61 604.17 112.41 592.52 112.41 592.52Z" fill="black"/>
<path opacity="0.1" d="M248.73 289.74L247.17 291.96C247.17 291.96 234.78 283.23 229.69 278.86C224.6 274.49 212.58 294.51 203.11 299.97C193.64 305.43 177.63 306.89 177.63 306.89C177.63 306.89 165.25 294.51 165.63 290.89C166.01 287.27 159.81 286.16 159.44 283.61C159.07 281.06 156.89 273.78 153.98 270.14C152.44 268.22 152.22 262.21 152.36 256.98C153.36 256.78 153.98 256.67 153.98 256.67C155.534 253.846 157.499 251.268 159.81 249.02C163.09 246.11 168.18 228.27 168.18 228.27C171.09 218.44 176.91 221.35 176.91 221.35C176.91 236.28 192.21 241.74 199.85 247.93C207.49 254.12 219.51 270.14 228.98 273.42C236.75 276.07 245.84 286.32 248.73 289.74Z" fill="black"/>
<path d="M248.73 287.55L247.17 289.78C247.17 289.78 234.73 281.07 229.64 276.67C224.55 272.27 212.53 292.32 203.06 297.78C193.59 303.24 177.58 304.71 177.58 304.71C177.58 304.71 165.2 292.32 165.58 288.71C165.96 285.1 159.76 283.98 159.39 281.42C159.02 278.86 156.84 271.59 153.93 267.95C152.39 266.03 152.17 260.02 152.31 254.79L153.93 254.49C155.484 251.666 157.449 249.088 159.76 246.84C163.04 243.92 168.13 226.09 168.13 226.09C171.04 216.26 176.86 219.16 176.86 219.16C176.86 234.09 192.16 239.56 199.8 245.75C207.44 251.94 219.46 267.95 228.93 271.23C236.75 273.92 245.84 284.13 248.73 287.55Z" fill="#C5D7DB"/>
<path opacity="0.1" d="M249.66 290.51C249.66 290.51 238.93 296.33 230.55 296.88C229.453 296.931 228.354 296.868 227.27 296.69C227.27 296.69 236.52 289.78 245.11 288.37L249.66 290.51Z" fill="black"/>
<path opacity="0.1" d="M271.51 320.18C271.51 320.18 257.98 314.91 253.51 322.84C253.66 319.2 253.72 316.18 253.72 316.18L268.47 313.26C268.47 313.26 269.89 315.89 271.55 319.43C271.51 319.9 271.51 320.18 271.51 320.18Z" fill="black"/>
<path d="M227.27 296.69C227.27 296.69 243.48 286.96 251.27 287.78C259.44 288.63 275.27 289.23 275.27 289.23C275.27 289.23 269.81 301.61 270.54 304.16C271.27 306.71 271.45 319.09 271.45 319.09C271.45 319.09 255.07 312.72 252.34 324.55C252.34 324.55 243.42 311.26 237.41 307.25C233.422 304.369 229.987 300.792 227.27 296.69Z" fill="#3C405C"/>
<path opacity="0.1" d="M318.84 307.99C314.11 307.99 297.36 297.42 293.72 290.51C290.08 283.6 284.98 291.23 280.25 293.79C277.25 295.43 265.36 292 258.95 289.51C262.2 287.3 269.4 281.08 271.51 279.59C274.05 277.76 276.61 248.27 276.61 248.27C285.71 243.54 295.54 286.5 295.54 286.5C295.54 286.5 312.66 291.6 314.11 295.24C314.39 295.96 315.68 297.24 317.62 298.79C319.62 303.83 320.72 307.99 318.84 307.99Z" fill="black"/>
<path d="M318.84 305.8C314.11 305.8 297.36 295.24 293.72 288.33C290.08 281.42 284.98 289.05 280.25 291.6C277.25 293.24 267.72 290.07 261.31 287.6C264.56 285.4 269.4 278.92 271.51 277.42C274.05 275.6 276.61 246.11 276.61 246.11C285.71 241.38 295.54 284.34 295.54 284.34C295.54 284.34 312.66 289.44 314.11 293.08C314.39 293.8 315.68 295.08 317.62 296.63C319.62 301.64 320.72 305.8 318.84 305.8Z" fill="#C5D7DB"/>
<path d="M383.53 624.77L541.84 492.77C543.42 491.436 545.433 490.724 547.5 490.77L606.56 492.32C606.56 492.32 610.65 495.32 604.65 501.88L455.31 624.43C453.696 625.749 451.693 626.501 449.61 626.57L385.03 628.71C384.566 628.725 384.11 628.594 383.723 628.337C383.337 628.079 383.041 627.708 382.876 627.275C382.711 626.841 382.685 626.367 382.802 625.918C382.92 625.469 383.174 625.068 383.53 624.77Z" fill="#435FC4"/>
<path d="M460.11 608.53C460.11 608.53 494.69 658.05 533.11 611.99C571.53 565.93 560.42 541.73 548.77 540.45C537.12 539.17 471.57 589.6 460.11 608.53Z" fill="#BD9A66"/>
<path opacity="0.5" d="M693.34 54.67C693.34 54.67 737.91 -31.83 790.59 12.78C790.59 12.78 802.09 16.97 801.22 29.13C801.22 29.13 796.79 26.7 793.27 35.99C791.977 39.2864 790.299 42.4181 788.27 45.32C785.573 49.2402 781.679 52.1805 777.17 53.7C777.17 53.7 753.53 71.41 709.74 57.75C709.74 57.75 697.36 59.53 695.36 57.99L709.75 47.47C709.75 47.47 717.06 58.32 727.75 59.56C727.75 59.56 709.75 48.26 711.81 45.81C712.23 45.31 719.69 40.58 719.69 40.58C719.69 40.58 732.48 59.39 749.06 60.78C749.06 60.78 725.83 50.19 722.5 38.78L734.17 32.27C734.17 32.27 746.71 52.82 765.54 55.12C765.54 55.12 741.64 43.21 736.82 31.02L749.17 26.2C749.17 26.2 761.8 46 777.47 47.81C777.47 47.81 751.25 31.26 752.07 25.28C752.07 25.28 763.68 21.54 767.24 22.03C767.24 22.03 776.63 36.03 785.83 36.28C785.83 36.28 769.48 23.36 770.56 21.37C770.56 21.37 786.98 20.52 795.56 24.49C795.56 24.49 783.36 17.7 770.56 18.8C770.56 18.8 776.35 11.99 783.9 10.49C783.9 10.49 774.85 6.77002 766.58 19.05C766.58 19.05 753.81 20.22 752.23 21.64C752.23 21.64 758.69 8.36001 766.64 2.71001C766.64 2.71001 754.79 4.80002 748.92 22.8L736.4 27.37C736.4 27.37 744.01 9.37001 750.72 3.81001C750.72 3.81001 738.96 7.81001 733.34 28.81L721.82 35.07C721.82 35.07 727.19 19.07 733.32 11.26C733.32 11.26 723.21 17.32 718.58 36.98L711.38 42.05C711.38 42.05 715.51 30.43 717 27.2C718.49 23.97 717.74 23.3 717.74 23.3C712.735 29.2172 709.471 36.4074 708.31 44.07C708.31 44.07 694.17 55.47 693.34 54.67Z" fill="white"/>
<path opacity="0.1" d="M877.67 100.93C877.67 100.93 897.81 61.84 921.61 82C921.61 82 926.81 83.89 926.41 89.38C926.41 89.38 924.41 88.29 922.82 92.49C922.244 93.9776 921.492 95.391 920.58 96.7C919.363 98.467 917.61 99.7957 915.58 100.49C915.58 100.49 904.89 108.49 885.1 102.32C885.1 102.32 879.51 103.12 878.61 102.43L885.11 97.67C885.11 97.67 888.41 102.58 893.25 103.13C893.25 103.13 885.13 98.03 886.05 96.92C886.23 96.7 889.6 94.56 889.6 94.56C889.6 94.56 895.38 103.06 902.88 103.69C902.88 103.69 892.38 98.9 890.88 93.69L896.16 90.76C896.16 90.76 901.82 100.05 910.33 101.09C910.33 101.09 899.53 95.71 897.33 90.2L902.91 88.02C902.91 88.02 908.61 96.97 915.69 97.79C915.69 97.79 903.84 90.31 904.22 87.61C904.22 87.61 909.46 85.92 911.07 86.14C911.07 86.14 915.31 92.47 919.47 92.57C919.47 92.57 912.08 86.74 912.57 85.84C912.57 85.84 919.99 85.46 923.85 87.25C923.85 87.25 918.34 84.18 912.57 84.68C914.162 82.8697 916.247 81.563 918.57 80.92C918.57 80.92 914.48 79.24 910.74 84.79C910.74 84.79 904.97 85.32 904.26 85.96C904.26 85.96 907.18 79.96 910.77 77.41C910.77 77.41 905.41 78.35 902.77 86.49L897.17 88.59C897.17 88.59 900.6 80.46 903.64 77.94C903.64 77.94 898.32 79.75 895.78 89.23L890.58 92.05C890.58 92.05 893 84.81 895.77 81.29C895.77 81.29 891.2 84.03 889.12 92.91L885.86 95.2C885.86 95.2 887.73 89.95 888.4 88.49C889.07 87.03 888.73 86.73 888.73 86.73C886.468 89.4131 884.994 92.6701 884.47 96.14C884.47 96.14 878.02 101.29 877.67 100.93Z" fill="#BD9A66"/>
<path opacity="0.7" d="M659.44 146.41C659.44 146.41 679.58 107.32 703.44 127.48C703.44 127.48 708.63 129.37 708.24 134.87C708.24 134.87 706.24 133.77 704.65 137.97C704.07 139.456 703.319 140.869 702.41 142.18C701.18 143.956 699.408 145.285 697.36 145.97C697.36 145.97 686.68 153.97 666.89 147.8C666.89 147.8 661.3 148.61 660.4 147.91L666.9 143.15C666.9 143.15 670.2 148.06 675.03 148.62C675.03 148.62 666.91 143.51 667.83 142.4C668.02 142.18 671.39 140.04 671.39 140.04C671.39 140.04 677.17 148.54 684.66 149.17C684.66 149.17 674.17 144.38 672.66 139.17L677.94 136.25C677.94 136.25 683.61 145.53 692.12 146.57C692.12 146.57 681.32 141.19 679.12 135.68L684.7 133.5C684.7 133.5 690.41 142.45 697.49 143.27C697.49 143.27 685.64 135.79 686.01 133.09C686.01 133.09 691.26 131.4 692.87 131.62C692.87 131.62 697.11 137.95 701.27 138.06C701.27 138.06 693.88 132.22 694.37 131.32C694.37 131.32 701.78 130.94 705.65 132.73C705.65 132.73 700.13 129.66 694.36 130.16C695.952 128.35 698.037 127.043 700.36 126.4C700.36 126.4 696.28 124.72 692.54 130.27C692.54 130.27 686.77 130.8 686.06 131.44C686.06 131.44 688.97 125.44 692.57 122.89C692.57 122.89 687.21 123.83 684.57 131.97L678.9 134.07C678.9 134.07 682.34 125.94 685.37 123.43C685.37 123.43 680.06 125.23 677.52 134.71L672.31 137.53C672.31 137.53 674.74 130.29 677.51 126.77C677.51 126.77 672.94 129.51 670.85 138.39L667.59 140.68C667.59 140.68 669.46 135.43 670.13 133.97C670.8 132.51 670.47 132.21 670.47 132.21C668.204 134.89 666.729 138.149 666.21 141.62C666.21 141.62 659.79 146.77 659.44 146.41Z" fill="#387637"/>
</g>
<defs>
<clipPath id="clip0">
<rect width="1072.34" height="780.14" fill="white"/>
</clipPath>
</defs>
</svg>
